<mxfile modified="2019-11-18T15:44:49.188Z" host="www.draw.io" agent="Mozilla/5.0 (Windows NT 10.0; Win64; x64) AppleWebKit/537.36 (KHTML, like Gecko) Chrome/78.0.3904.97 Safari/537.36" etag="Ii-49ju9VxoNOiA33MC7" version="12.2.6" type="github" pages="1">
  <diagram id="6r8ebwQPKGLBiBFQONnZ" name="Page-1">
    <mxGraphModel dx="768" dy="1239" grid="1" gridSize="10" guides="1" tooltips="1" connect="1" arrows="1" fold="1" page="1" pageScale="1" pageWidth="1169" pageHeight="827" math="0" shadow="0">
      <root>
        <mxCell id="0"/>
        <mxCell id="1" parent="0"/>
        <mxCell id="vndDen_A82_FgcWnEU_Y-4" value="" style="edgeStyle=orthogonalEdgeStyle;rounded=0;orthogonalLoop=1;jettySize=auto;html=1;" parent="1" source="vndDen_A82_FgcWnEU_Y-1" target="vndDen_A82_FgcWnEU_Y-3" edge="1">
          <mxGeometry relative="1" as="geometry"/>
        </mxCell>
        <mxCell id="vndDen_A82_FgcWnEU_Y-1" value="&lt;span style=&quot;font-size: 14px&quot;&gt;start&lt;/span&gt;" style="strokeWidth=2;html=1;shape=mxgraph.flowchart.terminator;whiteSpace=wrap;" parent="1" vertex="1">
          <mxGeometry x="588" y="-99.98147583007812" width="100" height="60" as="geometry"/>
        </mxCell>
        <mxCell id="vndDen_A82_FgcWnEU_Y-2" value="&lt;font style=&quot;font-size: 14px&quot;&gt;&lt;b&gt;aim: plan public traffic ticket&lt;/b&gt;&lt;br&gt;1. departure (mandatory)&lt;br&gt;2. destination (mandatory)&lt;br&gt;3. vehicle (mandatory)&lt;br&gt;4. departure date (mandatory)&lt;br&gt;5. name (mandatory)&lt;br&gt;6. ID (mandatory)&lt;br&gt;7. solution index (mandatory)&lt;br&gt;&lt;br&gt;&lt;/font&gt;" style="text;html=1;strokeColor=none;fillColor=none;align=left;verticalAlign=middle;whiteSpace=wrap;rounded=0;" parent="1" vertex="1">
          <mxGeometry x="164" y="-70" width="270" height="110" as="geometry"/>
        </mxCell>
        <mxCell id="vndDen_A82_FgcWnEU_Y-6" value="" style="edgeStyle=orthogonalEdgeStyle;rounded=0;orthogonalLoop=1;jettySize=auto;html=1;" parent="1" source="vndDen_A82_FgcWnEU_Y-3" target="vndDen_A82_FgcWnEU_Y-5" edge="1">
          <mxGeometry relative="1" as="geometry"/>
        </mxCell>
        <mxCell id="vndDen_A82_FgcWnEU_Y-3" value="&lt;span style=&quot;font-size: 14px ; white-space: normal&quot;&gt;robot: query traffic &lt;br&gt;plan and give example&lt;br&gt;&amp;nbsp;to user&lt;br&gt;&lt;/span&gt;" style="shape=parallelogram;perimeter=parallelogramPerimeter;whiteSpace=wrap;html=1;" parent="1" vertex="1">
          <mxGeometry x="548" y="-12.5" width="180" height="58" as="geometry"/>
        </mxCell>
        <mxCell id="f19TXx5zY4OCxn9IoFhB-2" style="edgeStyle=orthogonalEdgeStyle;rounded=0;orthogonalLoop=1;jettySize=auto;html=1;exitX=0.5;exitY=1;exitDx=0;exitDy=0;entryX=0.5;entryY=0;entryDx=0;entryDy=0;" parent="1" source="vndDen_A82_FgcWnEU_Y-5" target="f19TXx5zY4OCxn9IoFhB-1" edge="1">
          <mxGeometry relative="1" as="geometry"/>
        </mxCell>
        <mxCell id="vndDen_A82_FgcWnEU_Y-5" value="&lt;span style=&quot;font-size: 14px ; white-space: normal&quot;&gt;user: input demand&lt;/span&gt;" style="shape=parallelogram;perimeter=parallelogramPerimeter;whiteSpace=wrap;html=1;" parent="1" vertex="1">
          <mxGeometry x="548.5" y="73.5" width="180" height="42" as="geometry"/>
        </mxCell>
        <mxCell id="vndDen_A82_FgcWnEU_Y-10" value="no 1" style="edgeStyle=orthogonalEdgeStyle;rounded=0;orthogonalLoop=1;jettySize=auto;html=1;" parent="1" source="vndDen_A82_FgcWnEU_Y-7" target="vndDen_A82_FgcWnEU_Y-9" edge="1">
          <mxGeometry x="0.7445" relative="1" as="geometry">
            <mxPoint as="offset"/>
          </mxGeometry>
        </mxCell>
        <mxCell id="f19TXx5zY4OCxn9IoFhB-6" value="no 2" style="edgeStyle=orthogonalEdgeStyle;rounded=0;orthogonalLoop=1;jettySize=auto;html=1;exitX=0;exitY=0.5;exitDx=0;exitDy=0;" parent="1" source="vndDen_A82_FgcWnEU_Y-7" target="vndDen_A82_FgcWnEU_Y-17" edge="1">
          <mxGeometry x="0.5395" relative="1" as="geometry">
            <mxPoint as="offset"/>
          </mxGeometry>
        </mxCell>
        <mxCell id="f19TXx5zY4OCxn9IoFhB-7" value="no 3" style="edgeStyle=orthogonalEdgeStyle;rounded=0;orthogonalLoop=1;jettySize=auto;html=1;exitX=0.5;exitY=1;exitDx=0;exitDy=0;" parent="1" source="vndDen_A82_FgcWnEU_Y-7" target="vndDen_A82_FgcWnEU_Y-24" edge="1">
          <mxGeometry relative="1" as="geometry"/>
        </mxCell>
        <mxCell id="f19TXx5zY4OCxn9IoFhB-8" value="no 4" style="edgeStyle=orthogonalEdgeStyle;rounded=0;orthogonalLoop=1;jettySize=auto;html=1;exitX=0.5;exitY=1;exitDx=0;exitDy=0;entryX=0.5;entryY=0;entryDx=0;entryDy=0;" parent="1" source="vndDen_A82_FgcWnEU_Y-7" target="vndDen_A82_FgcWnEU_Y-29" edge="1">
          <mxGeometry x="0.7474" relative="1" as="geometry">
            <Array as="points">
              <mxPoint x="839" y="404"/>
            </Array>
            <mxPoint as="offset"/>
          </mxGeometry>
        </mxCell>
        <mxCell id="f19TXx5zY4OCxn9IoFhB-14" style="edgeStyle=orthogonalEdgeStyle;rounded=0;orthogonalLoop=1;jettySize=auto;html=1;exitX=0;exitY=0;exitDx=0;exitDy=0;entryX=1;entryY=0.5;entryDx=0;entryDy=0;" parent="1" source="vndDen_A82_FgcWnEU_Y-7" target="f19TXx5zY4OCxn9IoFhB-13" edge="1">
          <mxGeometry relative="1" as="geometry">
            <Array as="points">
              <mxPoint x="599" y="319"/>
            </Array>
          </mxGeometry>
        </mxCell>
        <mxCell id="f19TXx5zY4OCxn9IoFhB-15" value="no any slot values" style="text;html=1;resizable=0;points=[];align=center;verticalAlign=middle;labelBackgroundColor=#ffffff;" parent="f19TXx5zY4OCxn9IoFhB-14" vertex="1" connectable="0">
          <mxGeometry x="0.0767" y="-2" relative="1" as="geometry">
            <mxPoint as="offset"/>
          </mxGeometry>
        </mxCell>
        <mxCell id="f19TXx5zY4OCxn9IoFhB-17" style="edgeStyle=orthogonalEdgeStyle;rounded=0;orthogonalLoop=1;jettySize=auto;html=1;exitX=1;exitY=0.5;exitDx=0;exitDy=0;entryX=1;entryY=0.5;entryDx=0;entryDy=0;" parent="1" source="vndDen_A82_FgcWnEU_Y-7" target="n2Iilo3OYamWraCBPrWy-1" edge="1">
          <mxGeometry relative="1" as="geometry">
            <Array as="points">
              <mxPoint x="1000" y="375"/>
              <mxPoint x="1000" y="645"/>
            </Array>
            <mxPoint x="550" y="690" as="targetPoint"/>
          </mxGeometry>
        </mxCell>
        <mxCell id="f19TXx5zY4OCxn9IoFhB-18" value="all is done" style="text;html=1;resizable=0;points=[];align=center;verticalAlign=middle;labelBackgroundColor=#ffffff;" parent="f19TXx5zY4OCxn9IoFhB-17" vertex="1" connectable="0">
          <mxGeometry x="-0.7683" relative="1" as="geometry">
            <mxPoint as="offset"/>
          </mxGeometry>
        </mxCell>
        <mxCell id="vndDen_A82_FgcWnEU_Y-7" value="&lt;font style=&quot;font-size: 14px&quot;&gt;slot 1, 2, 3, 4?&lt;br&gt;&lt;/font&gt;" style="rhombus;whiteSpace=wrap;html=1;" parent="1" vertex="1">
          <mxGeometry x="561" y="344.5" width="157" height="60" as="geometry"/>
        </mxCell>
        <mxCell id="f19TXx5zY4OCxn9IoFhB-10" style="edgeStyle=orthogonalEdgeStyle;rounded=0;orthogonalLoop=1;jettySize=auto;html=1;exitX=0.5;exitY=1;exitDx=0;exitDy=0;entryX=0;entryY=0.5;entryDx=0;entryDy=0;" parent="1" source="vndDen_A82_FgcWnEU_Y-9" target="vndDen_A82_FgcWnEU_Y-5" edge="1">
          <mxGeometry relative="1" as="geometry">
            <Array as="points">
              <mxPoint x="291" y="600"/>
              <mxPoint x="171" y="600"/>
              <mxPoint x="171" y="95"/>
            </Array>
          </mxGeometry>
        </mxCell>
        <mxCell id="vndDen_A82_FgcWnEU_Y-9" value="&lt;font style=&quot;font-size: 14px&quot;&gt;robot: ask 1&lt;br&gt;and give example&lt;br&gt;&lt;/font&gt;" style="shape=parallelogram;perimeter=parallelogramPerimeter;whiteSpace=wrap;html=1;" parent="1" vertex="1">
          <mxGeometry x="200" y="460" width="182" height="53" as="geometry"/>
        </mxCell>
        <mxCell id="f19TXx5zY4OCxn9IoFhB-11" style="edgeStyle=orthogonalEdgeStyle;rounded=0;orthogonalLoop=1;jettySize=auto;html=1;exitX=0.5;exitY=1;exitDx=0;exitDy=0;entryX=0;entryY=0.5;entryDx=0;entryDy=0;" parent="1" source="vndDen_A82_FgcWnEU_Y-17" target="vndDen_A82_FgcWnEU_Y-5" edge="1">
          <mxGeometry relative="1" as="geometry">
            <Array as="points">
              <mxPoint x="473" y="600"/>
              <mxPoint x="171" y="600"/>
              <mxPoint x="171" y="95"/>
            </Array>
          </mxGeometry>
        </mxCell>
        <mxCell id="vndDen_A82_FgcWnEU_Y-17" value="&lt;font style=&quot;font-size: 14px&quot;&gt;robot: ask 2&lt;br&gt;and give example&lt;br&gt;&lt;/font&gt;" style="shape=parallelogram;perimeter=parallelogramPerimeter;whiteSpace=wrap;html=1;" parent="1" vertex="1">
          <mxGeometry x="382" y="460" width="182" height="53" as="geometry"/>
        </mxCell>
        <mxCell id="f19TXx5zY4OCxn9IoFhB-12" style="edgeStyle=orthogonalEdgeStyle;rounded=0;orthogonalLoop=1;jettySize=auto;html=1;exitX=0.5;exitY=1;exitDx=0;exitDy=0;entryX=0;entryY=0.5;entryDx=0;entryDy=0;" parent="1" source="vndDen_A82_FgcWnEU_Y-24" target="vndDen_A82_FgcWnEU_Y-5" edge="1">
          <mxGeometry relative="1" as="geometry">
            <Array as="points">
              <mxPoint x="656" y="600"/>
              <mxPoint x="171" y="600"/>
              <mxPoint x="171" y="95"/>
            </Array>
          </mxGeometry>
        </mxCell>
        <mxCell id="vndDen_A82_FgcWnEU_Y-24" value="&lt;font style=&quot;font-size: 14px&quot;&gt;robot: ask 3&lt;br&gt;and give example&lt;br&gt;&lt;/font&gt;" style="shape=parallelogram;perimeter=parallelogramPerimeter;whiteSpace=wrap;html=1;" parent="1" vertex="1">
          <mxGeometry x="565.5" y="460" width="182" height="53" as="geometry"/>
        </mxCell>
        <mxCell id="f19TXx5zY4OCxn9IoFhB-9" style="edgeStyle=orthogonalEdgeStyle;rounded=0;orthogonalLoop=1;jettySize=auto;html=1;exitX=0.5;exitY=1;exitDx=0;exitDy=0;entryX=0;entryY=0.5;entryDx=0;entryDy=0;" parent="1" source="vndDen_A82_FgcWnEU_Y-29" target="vndDen_A82_FgcWnEU_Y-5" edge="1">
          <mxGeometry relative="1" as="geometry">
            <mxPoint x="540" y="600" as="targetPoint"/>
            <Array as="points">
              <mxPoint x="839" y="600"/>
              <mxPoint x="171" y="600"/>
              <mxPoint x="171" y="95"/>
            </Array>
          </mxGeometry>
        </mxCell>
        <mxCell id="vndDen_A82_FgcWnEU_Y-29" value="&lt;font style=&quot;font-size: 14px&quot;&gt;robot: ask 4&lt;br&gt;and give example&lt;br&gt;&lt;/font&gt;" style="shape=parallelogram;perimeter=parallelogramPerimeter;whiteSpace=wrap;html=1;" parent="1" vertex="1">
          <mxGeometry x="748" y="460" width="182" height="53" as="geometry"/>
        </mxCell>
        <mxCell id="vndDen_A82_FgcWnEU_Y-39" value="" style="edgeStyle=orthogonalEdgeStyle;rounded=0;orthogonalLoop=1;jettySize=auto;html=1;" parent="1" source="vndDen_A82_FgcWnEU_Y-32" target="vndDen_A82_FgcWnEU_Y-37" edge="1">
          <mxGeometry relative="1" as="geometry"/>
        </mxCell>
        <mxCell id="vndDen_A82_FgcWnEU_Y-32" value="&lt;span style=&quot;font-size: 14px ; white-space: normal&quot;&gt;&amp;nbsp; &amp;nbsp; &amp;nbsp;robot:&amp;nbsp;&lt;/span&gt;&lt;span style=&quot;font-size: 14px&quot;&gt;output solution list&amp;nbsp;&lt;/span&gt;&lt;br style=&quot;font-size: 14px&quot;&gt;&lt;span style=&quot;font-size: 14px&quot;&gt;&amp;nbsp; &amp;nbsp; and ask user to&lt;/span&gt;&lt;span style=&quot;font-size: 14px ; white-space: normal&quot;&gt;&amp;nbsp;select &lt;br&gt;the index to book&lt;br&gt;&lt;/span&gt;" style="shape=parallelogram;perimeter=parallelogramPerimeter;whiteSpace=wrap;html=1;" parent="1" vertex="1">
          <mxGeometry x="531" y="800" width="210" height="58" as="geometry"/>
        </mxCell>
        <mxCell id="vndDen_A82_FgcWnEU_Y-41" value="" style="edgeStyle=orthogonalEdgeStyle;rounded=0;orthogonalLoop=1;jettySize=auto;html=1;" parent="1" source="vndDen_A82_FgcWnEU_Y-37" target="vndDen_A82_FgcWnEU_Y-40" edge="1">
          <mxGeometry relative="1" as="geometry"/>
        </mxCell>
        <mxCell id="vndDen_A82_FgcWnEU_Y-37" value="&lt;span style=&quot;font-size: 14px ; white-space: normal&quot;&gt;user: confirm and &lt;br&gt;select one&lt;/span&gt;" style="shape=parallelogram;perimeter=parallelogramPerimeter;whiteSpace=wrap;html=1;" parent="1" vertex="1">
          <mxGeometry x="546" y="898.2345377604165" width="180" height="60" as="geometry"/>
        </mxCell>
        <mxCell id="vndDen_A82_FgcWnEU_Y-44" value="" style="edgeStyle=orthogonalEdgeStyle;rounded=0;orthogonalLoop=1;jettySize=auto;html=1;" parent="1" source="vndDen_A82_FgcWnEU_Y-40" target="ZlfuMa2-yeJI-Y9UWcC_-1" edge="1">
          <mxGeometry relative="1" as="geometry"/>
        </mxCell>
        <mxCell id="f19TXx5zY4OCxn9IoFhB-20" style="edgeStyle=orthogonalEdgeStyle;rounded=0;orthogonalLoop=1;jettySize=auto;html=1;exitX=0.955;exitY=0.5;exitDx=0;exitDy=0;entryX=1;entryY=0.5;entryDx=0;entryDy=0;exitPerimeter=0;" parent="1" source="vndDen_A82_FgcWnEU_Y-40" target="vndDen_A82_FgcWnEU_Y-32" edge="1">
          <mxGeometry relative="1" as="geometry">
            <mxPoint x="908.9411764705883" y="954.5294117647059" as="targetPoint"/>
            <Array as="points">
              <mxPoint x="930" y="1107"/>
              <mxPoint x="930" y="829"/>
            </Array>
          </mxGeometry>
        </mxCell>
        <mxCell id="f19TXx5zY4OCxn9IoFhB-21" value="uncertain" style="text;html=1;resizable=0;points=[];align=center;verticalAlign=middle;labelBackgroundColor=#ffffff;" parent="f19TXx5zY4OCxn9IoFhB-20" vertex="1" connectable="0">
          <mxGeometry x="-0.3377" relative="1" as="geometry">
            <mxPoint y="-94.5" as="offset"/>
          </mxGeometry>
        </mxCell>
        <mxCell id="vndDen_A82_FgcWnEU_Y-40" value="&lt;font style=&quot;font-size: 14px&quot;&gt;select?&lt;br&gt;&lt;/font&gt;" style="rhombus;whiteSpace=wrap;html=1;" parent="1" vertex="1">
          <mxGeometry x="558" y="1077" width="157" height="60" as="geometry"/>
        </mxCell>
        <mxCell id="f19TXx5zY4OCxn9IoFhB-35" style="edgeStyle=orthogonalEdgeStyle;rounded=0;orthogonalLoop=1;jettySize=auto;html=1;exitX=0.5;exitY=1;exitDx=0;exitDy=0;entryX=1;entryY=0.5;entryDx=0;entryDy=0;" parent="1" source="vndDen_A82_FgcWnEU_Y-42" target="vndDen_A82_FgcWnEU_Y-50" edge="1">
          <mxGeometry relative="1" as="geometry">
            <Array as="points">
              <mxPoint x="519" y="1512"/>
            </Array>
          </mxGeometry>
        </mxCell>
        <mxCell id="vndDen_A82_FgcWnEU_Y-42" value="&lt;font style=&quot;font-size: 14px&quot;&gt;robot: ask 5&lt;/font&gt;" style="shape=parallelogram;perimeter=parallelogramPerimeter;whiteSpace=wrap;html=1;" parent="1" vertex="1">
          <mxGeometry x="428" y="1390.5" width="182" height="53" as="geometry"/>
        </mxCell>
        <mxCell id="vndDen_A82_FgcWnEU_Y-45" value="no 5" style="edgeStyle=orthogonalEdgeStyle;rounded=0;orthogonalLoop=1;jettySize=auto;html=1;exitX=0.5;exitY=1;exitDx=0;exitDy=0;entryX=0.5;entryY=0;entryDx=0;entryDy=0;" parent="1" source="vndDen_A82_FgcWnEU_Y-43" target="vndDen_A82_FgcWnEU_Y-42" edge="1">
          <mxGeometry relative="1" as="geometry">
            <Array as="points">
              <mxPoint x="636" y="1337"/>
              <mxPoint x="519" y="1337"/>
            </Array>
          </mxGeometry>
        </mxCell>
        <mxCell id="f19TXx5zY4OCxn9IoFhB-37" style="edgeStyle=orthogonalEdgeStyle;rounded=0;orthogonalLoop=1;jettySize=auto;html=1;exitX=0;exitY=0.5;exitDx=0;exitDy=0;entryX=0.5;entryY=0;entryDx=0;entryDy=0;" parent="1" source="vndDen_A82_FgcWnEU_Y-43" target="f19TXx5zY4OCxn9IoFhB-36" edge="1">
          <mxGeometry relative="1" as="geometry"/>
        </mxCell>
        <mxCell id="f19TXx5zY4OCxn9IoFhB-39" value="no any slot values" style="text;html=1;resizable=0;points=[];align=center;verticalAlign=middle;labelBackgroundColor=#ffffff;" parent="f19TXx5zY4OCxn9IoFhB-37" vertex="1" connectable="0">
          <mxGeometry x="-0.0827" relative="1" as="geometry">
            <mxPoint as="offset"/>
          </mxGeometry>
        </mxCell>
        <mxCell id="f19TXx5zY4OCxn9IoFhB-41" style="edgeStyle=orthogonalEdgeStyle;rounded=0;orthogonalLoop=1;jettySize=auto;html=1;exitX=1;exitY=0.5;exitDx=0;exitDy=0;entryX=0.5;entryY=0;entryDx=0;entryDy=0;" parent="1" source="vndDen_A82_FgcWnEU_Y-43" target="vndDen_A82_FgcWnEU_Y-54" edge="1">
          <mxGeometry relative="1" as="geometry">
            <mxPoint x="978.7142857142858" y="1391.1428571428573" as="targetPoint"/>
          </mxGeometry>
        </mxCell>
        <mxCell id="f19TXx5zY4OCxn9IoFhB-42" value="all is done" style="text;html=1;resizable=0;points=[];align=center;verticalAlign=middle;labelBackgroundColor=#ffffff;" parent="f19TXx5zY4OCxn9IoFhB-41" vertex="1" connectable="0">
          <mxGeometry x="-0.4641" relative="1" as="geometry">
            <mxPoint as="offset"/>
          </mxGeometry>
        </mxCell>
        <mxCell id="vndDen_A82_FgcWnEU_Y-43" value="&lt;font style=&quot;font-size: 14px&quot;&gt;slot 5, 6 ?&lt;br&gt;&lt;/font&gt;" style="rhombus;whiteSpace=wrap;html=1;" parent="1" vertex="1">
          <mxGeometry x="558" y="1264.5" width="157" height="60" as="geometry"/>
        </mxCell>
        <mxCell id="vndDen_A82_FgcWnEU_Y-49" value="no 6" style="edgeStyle=orthogonalEdgeStyle;rounded=0;orthogonalLoop=1;jettySize=auto;html=1;exitX=0.5;exitY=1;exitDx=0;exitDy=0;entryX=0.5;entryY=0;entryDx=0;entryDy=0;" parent="1" source="vndDen_A82_FgcWnEU_Y-43" target="vndDen_A82_FgcWnEU_Y-48" edge="1">
          <mxGeometry relative="1" as="geometry">
            <mxPoint x="559.3083333333329" y="1411" as="sourcePoint"/>
            <Array as="points">
              <mxPoint x="636" y="1324"/>
              <mxPoint x="636" y="1337"/>
              <mxPoint x="756" y="1337"/>
            </Array>
          </mxGeometry>
        </mxCell>
        <mxCell id="f19TXx5zY4OCxn9IoFhB-34" style="edgeStyle=orthogonalEdgeStyle;rounded=0;orthogonalLoop=1;jettySize=auto;html=1;exitX=0.5;exitY=1;exitDx=0;exitDy=0;entryX=1;entryY=0.5;entryDx=0;entryDy=0;" parent="1" source="vndDen_A82_FgcWnEU_Y-48" target="vndDen_A82_FgcWnEU_Y-50" edge="1">
          <mxGeometry relative="1" as="geometry">
            <Array as="points">
              <mxPoint x="756" y="1512"/>
            </Array>
          </mxGeometry>
        </mxCell>
        <mxCell id="vndDen_A82_FgcWnEU_Y-48" value="&lt;font style=&quot;font-size: 14px&quot;&gt;robot: ask 6&lt;/font&gt;" style="shape=parallelogram;perimeter=parallelogramPerimeter;whiteSpace=wrap;html=1;" parent="1" vertex="1">
          <mxGeometry x="665" y="1390.5" width="182" height="53" as="geometry"/>
        </mxCell>
        <mxCell id="vndDen_A82_FgcWnEU_Y-53" style="edgeStyle=orthogonalEdgeStyle;rounded=0;orthogonalLoop=1;jettySize=auto;html=1;exitX=0;exitY=0.5;exitDx=0;exitDy=0;entryX=0.5;entryY=0;entryDx=0;entryDy=0;" parent="1" source="vndDen_A82_FgcWnEU_Y-84" target="vndDen_A82_FgcWnEU_Y-43" edge="1">
          <mxGeometry relative="1" as="geometry">
            <Array as="points">
              <mxPoint x="636" y="1244.5"/>
            </Array>
          </mxGeometry>
        </mxCell>
        <mxCell id="vndDen_A82_FgcWnEU_Y-50" value="&lt;span style=&quot;font-size: 14px ; white-space: normal&quot;&gt;user: input answer&lt;/span&gt;" style="shape=parallelogram;perimeter=parallelogramPerimeter;whiteSpace=wrap;html=1;" parent="1" vertex="1">
          <mxGeometry x="188" y="1481.3714384191176" width="180" height="60" as="geometry"/>
        </mxCell>
        <mxCell id="vndDen_A82_FgcWnEU_Y-57" value="" style="edgeStyle=orthogonalEdgeStyle;rounded=0;orthogonalLoop=1;jettySize=auto;html=1;" parent="1" source="vndDen_A82_FgcWnEU_Y-54" target="vndDen_A82_FgcWnEU_Y-56" edge="1">
          <mxGeometry relative="1" as="geometry"/>
        </mxCell>
        <mxCell id="vndDen_A82_FgcWnEU_Y-54" value="&lt;span style=&quot;font-size: 14px&quot;&gt;&amp;nbsp; &amp;nbsp;robot:output book&lt;br&gt;info and confirm&lt;/span&gt;" style="shape=parallelogram;perimeter=parallelogramPerimeter;whiteSpace=wrap;html=1;" parent="1" vertex="1">
          <mxGeometry x="888" y="1473.485897288603" width="182" height="53" as="geometry"/>
        </mxCell>
        <mxCell id="vndDen_A82_FgcWnEU_Y-59" value="" style="edgeStyle=orthogonalEdgeStyle;rounded=0;orthogonalLoop=1;jettySize=auto;html=1;" parent="1" source="vndDen_A82_FgcWnEU_Y-56" target="vndDen_A82_FgcWnEU_Y-58" edge="1">
          <mxGeometry relative="1" as="geometry"/>
        </mxCell>
        <mxCell id="vndDen_A82_FgcWnEU_Y-56" value="&lt;span style=&quot;font-size: 14px&quot;&gt;user: input confirm&lt;/span&gt;" style="shape=parallelogram;perimeter=parallelogramPerimeter;whiteSpace=wrap;html=1;" parent="1" vertex="1">
          <mxGeometry x="888" y="1560.3714384191176" width="182" height="53" as="geometry"/>
        </mxCell>
        <mxCell id="vndDen_A82_FgcWnEU_Y-61" value="ok&amp;nbsp;" style="edgeStyle=orthogonalEdgeStyle;rounded=0;orthogonalLoop=1;jettySize=auto;html=1;" parent="1" source="vndDen_A82_FgcWnEU_Y-58" target="vndDen_A82_FgcWnEU_Y-60" edge="1">
          <mxGeometry relative="1" as="geometry"/>
        </mxCell>
        <mxCell id="vndDen_A82_FgcWnEU_Y-74" style="edgeStyle=orthogonalEdgeStyle;rounded=0;orthogonalLoop=1;jettySize=auto;html=1;exitX=0.5;exitY=1;exitDx=0;exitDy=0;entryX=0.5;entryY=1;entryDx=0;entryDy=0;" parent="1" source="vndDen_A82_FgcWnEU_Y-58" target="n2Iilo3OYamWraCBPrWy-5" edge="1">
          <mxGeometry relative="1" as="geometry">
            <Array as="points">
              <mxPoint x="1331.5" y="1703"/>
            </Array>
          </mxGeometry>
        </mxCell>
        <mxCell id="vndDen_A82_FgcWnEU_Y-77" value="just no" style="text;html=1;resizable=0;points=[];align=center;verticalAlign=middle;labelBackgroundColor=#ffffff;" parent="vndDen_A82_FgcWnEU_Y-74" vertex="1" connectable="0">
          <mxGeometry x="-0.8434" y="-4" relative="1" as="geometry">
            <mxPoint x="133" y="-4" as="offset"/>
          </mxGeometry>
        </mxCell>
        <mxCell id="vndDen_A82_FgcWnEU_Y-75" style="edgeStyle=orthogonalEdgeStyle;rounded=0;orthogonalLoop=1;jettySize=auto;html=1;exitX=1;exitY=0.5;exitDx=0;exitDy=0;entryX=0.5;entryY=1;entryDx=0;entryDy=0;" parent="1" source="vndDen_A82_FgcWnEU_Y-58" target="8qUp4hz3IpJ9676Ca-v3-3" edge="1">
          <mxGeometry relative="1" as="geometry">
            <Array as="points">
              <mxPoint x="1212" y="1673"/>
            </Array>
            <mxPoint x="1212.4705882352941" y="1391" as="targetPoint"/>
          </mxGeometry>
        </mxCell>
        <mxCell id="vndDen_A82_FgcWnEU_Y-76" value="change demands" style="text;html=1;resizable=0;points=[];align=center;verticalAlign=middle;labelBackgroundColor=#ffffff;" parent="vndDen_A82_FgcWnEU_Y-75" vertex="1" connectable="0">
          <mxGeometry x="-0.8741" y="4" relative="1" as="geometry">
            <mxPoint x="127.5" y="-16" as="offset"/>
          </mxGeometry>
        </mxCell>
        <mxCell id="f19TXx5zY4OCxn9IoFhB-44" value="terminate" style="edgeStyle=orthogonalEdgeStyle;rounded=0;orthogonalLoop=1;jettySize=auto;html=1;exitX=0.5;exitY=1;exitDx=0;exitDy=0;entryX=0.5;entryY=0;entryDx=0;entryDy=0;entryPerimeter=0;" parent="1" source="vndDen_A82_FgcWnEU_Y-58" target="f19TXx5zY4OCxn9IoFhB-43" edge="1">
          <mxGeometry relative="1" as="geometry"/>
        </mxCell>
        <mxCell id="f19TXx5zY4OCxn9IoFhB-46" style="edgeStyle=orthogonalEdgeStyle;rounded=0;orthogonalLoop=1;jettySize=auto;html=1;exitX=0;exitY=0.5;exitDx=0;exitDy=0;entryX=1;entryY=0.5;entryDx=0;entryDy=0;" parent="1" source="vndDen_A82_FgcWnEU_Y-58" target="f19TXx5zY4OCxn9IoFhB-45" edge="1">
          <mxGeometry relative="1" as="geometry"/>
        </mxCell>
        <mxCell id="f19TXx5zY4OCxn9IoFhB-48" value="uncertain" style="text;html=1;resizable=0;points=[];align=center;verticalAlign=middle;labelBackgroundColor=#ffffff;" parent="f19TXx5zY4OCxn9IoFhB-46" vertex="1" connectable="0">
          <mxGeometry x="0.1754" y="1" relative="1" as="geometry">
            <mxPoint x="23" y="-1" as="offset"/>
          </mxGeometry>
        </mxCell>
        <mxCell id="vndDen_A82_FgcWnEU_Y-58" value="&lt;font style=&quot;font-size: 14px&quot;&gt;ok?&lt;br&gt;&lt;/font&gt;" style="rhombus;whiteSpace=wrap;html=1;" parent="1" vertex="1">
          <mxGeometry x="900.5" y="1643.2287741268383" width="157" height="60" as="geometry"/>
        </mxCell>
        <mxCell id="vndDen_A82_FgcWnEU_Y-60" value="&lt;font style=&quot;font-size: 14px&quot;&gt;stop&lt;/font&gt;" style="strokeWidth=2;html=1;shape=mxgraph.flowchart.terminator;whiteSpace=wrap;" parent="1" vertex="1">
          <mxGeometry x="837" y="1768.485897288603" width="100" height="60" as="geometry"/>
        </mxCell>
        <mxCell id="vndDen_A82_FgcWnEU_Y-70" style="edgeStyle=orthogonalEdgeStyle;rounded=0;orthogonalLoop=1;jettySize=auto;html=1;entryX=1;entryY=0.5;entryDx=0;entryDy=0;exitX=1;exitY=1;exitDx=0;exitDy=0;" parent="1" source="vndDen_A82_FgcWnEU_Y-40" target="vndDen_A82_FgcWnEU_Y-86" edge="1">
          <mxGeometry relative="1" as="geometry">
            <mxPoint x="62.571428571428896" y="958.2857142857142" as="sourcePoint"/>
            <Array as="points">
              <mxPoint x="1080" y="1122"/>
              <mxPoint x="1080" y="265"/>
            </Array>
          </mxGeometry>
        </mxCell>
        <mxCell id="vndDen_A82_FgcWnEU_Y-71" value="change demands" style="text;html=1;resizable=0;points=[];align=center;verticalAlign=middle;labelBackgroundColor=#ffffff;" parent="vndDen_A82_FgcWnEU_Y-70" vertex="1" connectable="0">
          <mxGeometry x="-0.9513" relative="1" as="geometry">
            <mxPoint x="232.5" as="offset"/>
          </mxGeometry>
        </mxCell>
        <mxCell id="n2Iilo3OYamWraCBPrWy-10" value="yes" style="text;html=1;resizable=0;points=[];align=center;verticalAlign=middle;labelBackgroundColor=#ffffff;" parent="vndDen_A82_FgcWnEU_Y-70" vertex="1" connectable="0">
          <mxGeometry x="-0.9808" y="-5" relative="1" as="geometry">
            <mxPoint x="-51.5" y="23" as="offset"/>
          </mxGeometry>
        </mxCell>
        <mxCell id="vndDen_A82_FgcWnEU_Y-72" style="edgeStyle=orthogonalEdgeStyle;rounded=0;orthogonalLoop=1;jettySize=auto;html=1;exitX=0;exitY=0;exitDx=0;exitDy=0;entryX=1;entryY=0.5;entryDx=0;entryDy=0;" parent="1" source="vndDen_A82_FgcWnEU_Y-40" target="n2Iilo3OYamWraCBPrWy-7" edge="1">
          <mxGeometry relative="1" as="geometry">
            <Array as="points">
              <mxPoint x="597.5" y="988"/>
            </Array>
            <mxPoint x="-15.5" y="896.2857142857142" as="sourcePoint"/>
          </mxGeometry>
        </mxCell>
        <mxCell id="vndDen_A82_FgcWnEU_Y-73" value="just no" style="text;html=1;resizable=0;points=[];align=center;verticalAlign=middle;labelBackgroundColor=#ffffff;" parent="vndDen_A82_FgcWnEU_Y-72" vertex="1" connectable="0">
          <mxGeometry x="-0.8664" y="1" relative="1" as="geometry">
            <mxPoint x="4" y="-26.5" as="offset"/>
          </mxGeometry>
        </mxCell>
        <mxCell id="f19TXx5zY4OCxn9IoFhB-25" value="terminate" style="edgeStyle=orthogonalEdgeStyle;rounded=0;orthogonalLoop=1;jettySize=auto;html=1;exitX=0;exitY=0.5;exitDx=0;exitDy=0;entryX=1;entryY=0.5;entryDx=0;entryDy=0;entryPerimeter=0;" parent="1" source="vndDen_A82_FgcWnEU_Y-40" target="f19TXx5zY4OCxn9IoFhB-24" edge="1">
          <mxGeometry x="0.28" y="-20" relative="1" as="geometry">
            <Array as="points">
              <mxPoint x="430" y="1107"/>
              <mxPoint x="430" y="1107"/>
            </Array>
            <mxPoint x="20" y="19" as="offset"/>
          </mxGeometry>
        </mxCell>
        <mxCell id="vndDen_A82_FgcWnEU_Y-84" value="&lt;font style=&quot;font-size: 14px&quot;&gt;extract values and fill slots&lt;/font&gt;" style="rounded=1;whiteSpace=wrap;html=1;" parent="1" vertex="1">
          <mxGeometry x="236" y="1214.5" width="144" height="50" as="geometry"/>
        </mxCell>
        <mxCell id="vndDen_A82_FgcWnEU_Y-85" style="edgeStyle=orthogonalEdgeStyle;rounded=0;orthogonalLoop=1;jettySize=auto;html=1;exitX=0;exitY=0.5;exitDx=0;exitDy=0;entryX=0;entryY=0.5;entryDx=0;entryDy=0;" parent="1" source="vndDen_A82_FgcWnEU_Y-50" target="vndDen_A82_FgcWnEU_Y-84" edge="1">
          <mxGeometry relative="1" as="geometry">
            <mxPoint x="91" y="1349.8823529411766" as="sourcePoint"/>
            <mxPoint x="109" y="1244" as="targetPoint"/>
            <Array as="points">
              <mxPoint x="206" y="1512"/>
              <mxPoint x="118" y="1512"/>
              <mxPoint x="118" y="1240"/>
            </Array>
          </mxGeometry>
        </mxCell>
        <mxCell id="vndDen_A82_FgcWnEU_Y-88" style="edgeStyle=orthogonalEdgeStyle;rounded=0;orthogonalLoop=1;jettySize=auto;html=1;exitX=0.5;exitY=1;exitDx=0;exitDy=0;entryX=0.5;entryY=0;entryDx=0;entryDy=0;" parent="1" source="vndDen_A82_FgcWnEU_Y-86" target="vndDen_A82_FgcWnEU_Y-7" edge="1">
          <mxGeometry relative="1" as="geometry"/>
        </mxCell>
        <mxCell id="vndDen_A82_FgcWnEU_Y-86" value="&lt;font style=&quot;font-size: 14px&quot;&gt;extract values and fill slots&lt;/font&gt;" style="rounded=1;whiteSpace=wrap;html=1;" parent="1" vertex="1">
          <mxGeometry x="566.5" y="239.8431252872242" width="144" height="50" as="geometry"/>
        </mxCell>
        <mxCell id="f19TXx5zY4OCxn9IoFhB-3" value="no" style="edgeStyle=orthogonalEdgeStyle;rounded=0;orthogonalLoop=1;jettySize=auto;html=1;exitX=0.5;exitY=1;exitDx=0;exitDy=0;" parent="1" source="f19TXx5zY4OCxn9IoFhB-1" target="vndDen_A82_FgcWnEU_Y-86" edge="1">
          <mxGeometry relative="1" as="geometry"/>
        </mxCell>
        <mxCell id="f19TXx5zY4OCxn9IoFhB-5" value="yes" style="edgeStyle=orthogonalEdgeStyle;rounded=0;orthogonalLoop=1;jettySize=auto;html=1;exitX=1;exitY=0.5;exitDx=0;exitDy=0;" parent="1" source="f19TXx5zY4OCxn9IoFhB-1" target="f19TXx5zY4OCxn9IoFhB-4" edge="1">
          <mxGeometry relative="1" as="geometry"/>
        </mxCell>
        <mxCell id="f19TXx5zY4OCxn9IoFhB-1" value="&lt;font style=&quot;font-size: 14px&quot;&gt;terminate ?&lt;br&gt;&lt;/font&gt;" style="rhombus;whiteSpace=wrap;html=1;" parent="1" vertex="1">
          <mxGeometry x="560" y="140" width="157" height="60" as="geometry"/>
        </mxCell>
        <mxCell id="f19TXx5zY4OCxn9IoFhB-4" value="&lt;font style=&quot;font-size: 14px&quot;&gt;stop&lt;/font&gt;" style="strokeWidth=2;html=1;shape=mxgraph.flowchart.terminator;whiteSpace=wrap;" parent="1" vertex="1">
          <mxGeometry x="830" y="139.8333740234375" width="100" height="60" as="geometry"/>
        </mxCell>
        <mxCell id="f19TXx5zY4OCxn9IoFhB-16" style="edgeStyle=orthogonalEdgeStyle;rounded=0;orthogonalLoop=1;jettySize=auto;html=1;exitX=0.5;exitY=0;exitDx=0;exitDy=0;entryX=0;entryY=0.5;entryDx=0;entryDy=0;" parent="1" source="f19TXx5zY4OCxn9IoFhB-13" target="vndDen_A82_FgcWnEU_Y-5" edge="1">
          <mxGeometry relative="1" as="geometry">
            <Array as="points">
              <mxPoint x="332" y="95"/>
            </Array>
          </mxGeometry>
        </mxCell>
        <mxCell id="f19TXx5zY4OCxn9IoFhB-13" value="&lt;span style=&quot;font-size: 14px ; white-space: normal&quot;&gt;&amp;nbsp; &amp;nbsp;robot: ask and give examples &lt;br&gt;to user&lt;/span&gt;" style="shape=parallelogram;perimeter=parallelogramPerimeter;whiteSpace=wrap;html=1;" parent="1" vertex="1">
          <mxGeometry x="242" y="290" width="180" height="58" as="geometry"/>
        </mxCell>
        <mxCell id="f19TXx5zY4OCxn9IoFhB-24" value="&lt;font style=&quot;font-size: 14px&quot;&gt;stop&lt;/font&gt;" style="strokeWidth=2;html=1;shape=mxgraph.flowchart.terminator;whiteSpace=wrap;" parent="1" vertex="1">
          <mxGeometry x="258" y="1076.7701631433824" width="100" height="60" as="geometry"/>
        </mxCell>
        <mxCell id="f19TXx5zY4OCxn9IoFhB-38" style="edgeStyle=orthogonalEdgeStyle;rounded=0;orthogonalLoop=1;jettySize=auto;html=1;exitX=0.5;exitY=1;exitDx=0;exitDy=0;entryX=0.5;entryY=0;entryDx=0;entryDy=0;" parent="1" source="f19TXx5zY4OCxn9IoFhB-36" target="vndDen_A82_FgcWnEU_Y-50" edge="1">
          <mxGeometry relative="1" as="geometry"/>
        </mxCell>
        <mxCell id="f19TXx5zY4OCxn9IoFhB-36" value="&lt;span style=&quot;font-size: 14px ; white-space: normal&quot;&gt;&amp;nbsp; &amp;nbsp;robot: ask and give examples &lt;br&gt;to user&lt;/span&gt;" style="shape=parallelogram;perimeter=parallelogramPerimeter;whiteSpace=wrap;html=1;" parent="1" vertex="1">
          <mxGeometry x="188" y="1358.8529411764707" width="180" height="58" as="geometry"/>
        </mxCell>
        <mxCell id="f19TXx5zY4OCxn9IoFhB-43" value="&lt;font style=&quot;font-size: 14px&quot;&gt;stop&lt;/font&gt;" style="strokeWidth=2;html=1;shape=mxgraph.flowchart.terminator;whiteSpace=wrap;" parent="1" vertex="1">
          <mxGeometry x="1020" y="1768.485897288603" width="100" height="60" as="geometry"/>
        </mxCell>
        <mxCell id="f19TXx5zY4OCxn9IoFhB-47" style="edgeStyle=orthogonalEdgeStyle;rounded=0;orthogonalLoop=1;jettySize=auto;html=1;exitX=0.5;exitY=0;exitDx=0;exitDy=0;entryX=0;entryY=0.25;entryDx=0;entryDy=0;" parent="1" source="f19TXx5zY4OCxn9IoFhB-45" target="vndDen_A82_FgcWnEU_Y-56" edge="1">
          <mxGeometry relative="1" as="geometry">
            <Array as="points">
              <mxPoint x="631" y="1577"/>
            </Array>
          </mxGeometry>
        </mxCell>
        <mxCell id="f19TXx5zY4OCxn9IoFhB-45" value="&lt;span style=&quot;font-size: 14px&quot;&gt;&amp;nbsp; &amp;nbsp;robot:give example answers(yes or no or change)&lt;/span&gt;" style="shape=parallelogram;perimeter=parallelogramPerimeter;whiteSpace=wrap;html=1;" parent="1" vertex="1">
          <mxGeometry x="540" y="1647" width="182" height="53" as="geometry"/>
        </mxCell>
        <mxCell id="waszioXDjJ8BMnU32u7M-2" style="edgeStyle=orthogonalEdgeStyle;rounded=0;orthogonalLoop=1;jettySize=auto;html=1;exitX=0.5;exitY=1;exitDx=0;exitDy=0;entryX=0.5;entryY=0;entryDx=0;entryDy=0;" parent="1" source="n2Iilo3OYamWraCBPrWy-1" target="waszioXDjJ8BMnU32u7M-1" edge="1">
          <mxGeometry relative="1" as="geometry"/>
        </mxCell>
        <mxCell id="n2Iilo3OYamWraCBPrWy-1" value="&lt;font style=&quot;font-size: 14px&quot;&gt;search traffic solutions by 1 and 2 and 3 and 4&lt;/font&gt;" style="rounded=1;whiteSpace=wrap;html=1;" parent="1" vertex="1">
          <mxGeometry x="564" y="620" width="144" height="50" as="geometry"/>
        </mxCell>
        <mxCell id="n2Iilo3OYamWraCBPrWy-6" style="edgeStyle=orthogonalEdgeStyle;rounded=0;orthogonalLoop=1;jettySize=auto;html=1;exitX=0.5;exitY=0;exitDx=0;exitDy=0;entryX=1;entryY=0.5;entryDx=0;entryDy=0;" parent="1" source="n2Iilo3OYamWraCBPrWy-5" target="vndDen_A82_FgcWnEU_Y-5" edge="1">
          <mxGeometry relative="1" as="geometry">
            <Array as="points">
              <mxPoint x="1331" y="94"/>
            </Array>
          </mxGeometry>
        </mxCell>
        <mxCell id="n2Iilo3OYamWraCBPrWy-5" value="&lt;span style=&quot;font-size: 14px&quot;&gt;&amp;nbsp; &amp;nbsp;robot:show current &lt;br&gt;slots and query new &lt;br&gt;book demands&lt;/span&gt;" style="shape=parallelogram;perimeter=parallelogramPerimeter;whiteSpace=wrap;html=1;" parent="1" vertex="1">
          <mxGeometry x="1240.5" y="1507.5" width="182" height="53" as="geometry"/>
        </mxCell>
        <mxCell id="n2Iilo3OYamWraCBPrWy-8" style="edgeStyle=orthogonalEdgeStyle;rounded=0;orthogonalLoop=1;jettySize=auto;html=1;exitX=0;exitY=0.5;exitDx=0;exitDy=0;entryX=0;entryY=0.5;entryDx=0;entryDy=0;" parent="1" source="n2Iilo3OYamWraCBPrWy-7" target="vndDen_A82_FgcWnEU_Y-5" edge="1">
          <mxGeometry relative="1" as="geometry">
            <mxPoint x="60" y="110" as="targetPoint"/>
            <Array as="points">
              <mxPoint x="120" y="989"/>
              <mxPoint x="120" y="95"/>
            </Array>
          </mxGeometry>
        </mxCell>
        <mxCell id="n2Iilo3OYamWraCBPrWy-7" value="&lt;span style=&quot;font-size: 14px&quot;&gt;&amp;nbsp; &amp;nbsp;robot:show current &lt;br&gt;slots and query new &lt;br&gt;book demands&lt;/span&gt;" style="shape=parallelogram;perimeter=parallelogramPerimeter;whiteSpace=wrap;html=1;" parent="1" vertex="1">
          <mxGeometry x="151.5" y="962" width="182" height="53" as="geometry"/>
        </mxCell>
        <mxCell id="ZlfuMa2-yeJI-Y9UWcC_-3" style="edgeStyle=orthogonalEdgeStyle;rounded=0;orthogonalLoop=1;jettySize=auto;html=1;exitX=0.5;exitY=1;exitDx=0;exitDy=0;entryX=0.5;entryY=0;entryDx=0;entryDy=0;" parent="1" source="ZlfuMa2-yeJI-Y9UWcC_-1" target="vndDen_A82_FgcWnEU_Y-43" edge="1">
          <mxGeometry relative="1" as="geometry"/>
        </mxCell>
        <mxCell id="ZlfuMa2-yeJI-Y9UWcC_-1" value="&lt;font style=&quot;font-size: 14px&quot;&gt;fill slot 7&lt;/font&gt;" style="rounded=1;whiteSpace=wrap;html=1;" parent="1" vertex="1">
          <mxGeometry x="565" y="1178" width="144" height="50" as="geometry"/>
        </mxCell>
        <mxCell id="8qUp4hz3IpJ9676Ca-v3-5" value="yes" style="edgeStyle=orthogonalEdgeStyle;rounded=0;orthogonalLoop=1;jettySize=auto;html=1;exitX=0;exitY=0.5;exitDx=0;exitDy=0;entryX=1;entryY=0.5;entryDx=0;entryDy=0;" parent="1" source="8qUp4hz3IpJ9676Ca-v3-3" target="hVzL59oLVLgbHV7sCubN-1" edge="1">
          <mxGeometry x="-0.6869" relative="1" as="geometry">
            <mxPoint as="offset"/>
          </mxGeometry>
        </mxCell>
        <mxCell id="8qUp4hz3IpJ9676Ca-v3-6" style="edgeStyle=orthogonalEdgeStyle;rounded=0;orthogonalLoop=1;jettySize=auto;html=1;exitX=0.5;exitY=0;exitDx=0;exitDy=0;entryX=1;entryY=0.5;entryDx=0;entryDy=0;" parent="1" source="8qUp4hz3IpJ9676Ca-v3-3" target="vndDen_A82_FgcWnEU_Y-86" edge="1">
          <mxGeometry relative="1" as="geometry"/>
        </mxCell>
        <mxCell id="8qUp4hz3IpJ9676Ca-v3-7" value="no" style="text;html=1;resizable=0;points=[];align=center;verticalAlign=middle;labelBackgroundColor=#ffffff;" parent="8qUp4hz3IpJ9676Ca-v3-6" vertex="1" connectable="0">
          <mxGeometry x="-0.9475" y="-2" relative="1" as="geometry">
            <mxPoint as="offset"/>
          </mxGeometry>
        </mxCell>
        <mxCell id="8qUp4hz3IpJ9676Ca-v3-3" value="&lt;font style=&quot;font-size: 14px&quot;&gt;only exist slot 5 or 6 ?&lt;br&gt;&lt;/font&gt;" style="rhombus;whiteSpace=wrap;html=1;" parent="1" vertex="1">
          <mxGeometry x="1133.5" y="1214.5" width="157" height="60" as="geometry"/>
        </mxCell>
        <mxCell id="hVzL59oLVLgbHV7sCubN-2" style="edgeStyle=orthogonalEdgeStyle;rounded=0;orthogonalLoop=1;jettySize=auto;html=1;exitX=0;exitY=0.5;exitDx=0;exitDy=0;entryX=0.5;entryY=0;entryDx=0;entryDy=0;" parent="1" source="hVzL59oLVLgbHV7sCubN-1" target="vndDen_A82_FgcWnEU_Y-43" edge="1">
          <mxGeometry relative="1" as="geometry"/>
        </mxCell>
        <mxCell id="hVzL59oLVLgbHV7sCubN-1" value="&lt;font style=&quot;font-size: 14px&quot;&gt;extract values and fill slots&lt;/font&gt;" style="rounded=1;whiteSpace=wrap;html=1;" parent="1" vertex="1">
          <mxGeometry x="839" y="1219.5" width="144" height="50" as="geometry"/>
        </mxCell>
        <mxCell id="waszioXDjJ8BMnU32u7M-3" value="Y" style="edgeStyle=orthogonalEdgeStyle;rounded=0;orthogonalLoop=1;jettySize=auto;html=1;exitX=0.5;exitY=1;exitDx=0;exitDy=0;entryX=0.5;entryY=0;entryDx=0;entryDy=0;" parent="1" source="waszioXDjJ8BMnU32u7M-1" target="vndDen_A82_FgcWnEU_Y-32" edge="1">
          <mxGeometry relative="1" as="geometry"/>
        </mxCell>
        <mxCell id="waszioXDjJ8BMnU32u7M-6" value="N" style="edgeStyle=orthogonalEdgeStyle;rounded=0;orthogonalLoop=1;jettySize=auto;html=1;exitX=0;exitY=0.5;exitDx=0;exitDy=0;entryX=1;entryY=0.5;entryDx=0;entryDy=0;" parent="1" source="waszioXDjJ8BMnU32u7M-1" target="waszioXDjJ8BMnU32u7M-5" edge="1">
          <mxGeometry relative="1" as="geometry"/>
        </mxCell>
        <mxCell id="waszioXDjJ8BMnU32u7M-1" value="&lt;font&gt;&lt;font style=&quot;font-size: 14px&quot;&gt;result ?&lt;/font&gt;&lt;br&gt;&lt;/font&gt;" style="rhombus;whiteSpace=wrap;html=1;" parent="1" vertex="1">
          <mxGeometry x="557.5" y="700" width="157" height="60" as="geometry"/>
        </mxCell>
        <mxCell id="waszioXDjJ8BMnU32u7M-7" style="edgeStyle=orthogonalEdgeStyle;rounded=0;orthogonalLoop=1;jettySize=auto;html=1;exitX=0;exitY=0.5;exitDx=0;exitDy=0;entryX=0;entryY=0.5;entryDx=0;entryDy=0;" parent="1" source="waszioXDjJ8BMnU32u7M-5" target="vndDen_A82_FgcWnEU_Y-5" edge="1">
          <mxGeometry relative="1" as="geometry">
            <Array as="points">
              <mxPoint x="120" y="730"/>
              <mxPoint x="120" y="95"/>
            </Array>
          </mxGeometry>
        </mxCell>
        <mxCell id="waszioXDjJ8BMnU32u7M-5" value="&lt;font style=&quot;font-size: 14px&quot;&gt;&amp;nbsp; &amp;nbsp; &amp;nbsp; robot: show current &lt;br&gt;slot values and ask&lt;br&gt;&amp;nbsp;new demands&lt;br&gt;&lt;/font&gt;" style="shape=parallelogram;perimeter=parallelogramPerimeter;whiteSpace=wrap;html=1;" parent="1" vertex="1">
          <mxGeometry x="308" y="701.5" width="166" height="57" as="geometry"/>
        </mxCell>
      </root>
    </mxGraphModel>
  </diagram>
</mxfile>
